# xmcd CD database file
#
# Track frame offsets:
#	150
#	57755
#	104221
#	175014
#	237906
#	295586
#
# Disc length: 4392 seconds
#
# Revision: 0
# Processed by: cddbd v1.5.1PL0 Copyright (c) Steve Scherf et al.
# Submitted via: CDex 1.51
#
DISCID=4e112606
DTITLE=Various Artist - The Mezzo Mix
DYEAR=2005
DGENRE=Mix
TTITLE0=Dance Cover from the 70´s
TTITLE1=Fiesta Latina
TTITLE2=Europe Dance Mix 1
TTITLE3=Soul Dance 98
TTITLE4=The famous Cosmic/Afro Mix 1
TTITLE5=Club Hits - Short Power Mix
EXTD=YEAR: 2005
EXTT0=
EXTT1=
EXTT2=
EXTT3=
EXTT4=
EXTT5=
PLAYORDER=
